<svg width="24" height="23" viewBox="0 0 24 23" fill="none" xmlns="http://www.w3.org/2000/svg">
<rect x="0.316406" y="0.00488281" width="22.9433" height="22.9433" fill="#F0FF3D"/>
<path d="M10.328 10.1071C11.2395 10.2808 11.8905 10.4111 12.5849 10.4979C13.3661 10.6282 14.1473 10.6716 14.9719 10.7584C15.623 10.8453 16.1872 11.1058 16.4042 11.8006C16.6212 12.5387 16.274 13.0598 15.7532 13.494C15.4928 13.7111 15.1889 13.9282 14.9285 14.1453C12.9755 15.5348 11.0225 16.9243 9.06941 18.3137C8.9392 18.4006 8.809 18.5309 8.6354 18.6177C8.15799 18.8782 7.63718 18.7914 7.28997 18.4006C6.94276 18.0098 6.89936 17.4887 7.20317 17.0111C7.42017 16.6637 7.72398 16.4032 8.02778 16.1861C9.46002 15.144 10.8922 14.1453 12.4981 12.9729C12.0207 12.8427 11.7169 12.7992 11.4131 12.7124C10.5884 12.5387 9.76382 12.4085 8.98261 12.1479C7.55037 11.6269 7.20317 10.3677 8.20139 9.15185C8.8524 8.37027 9.63362 7.67553 10.4148 7.02421C11.4999 6.1992 12.6717 5.46104 13.8435 4.72288C14.7549 4.11498 15.4059 4.1584 15.7966 4.7663C16.1872 5.3742 15.9268 5.9821 15.0587 6.63342C13.9737 7.415 12.8453 8.15316 11.7603 8.93475C11.3263 9.2387 10.9356 9.58607 10.328 10.1071Z" fill="#0D0D0D"/>
</svg>
