<svg width="18" height="18" viewBox="0 0 18 18" fill="none" xmlns="http://www.w3.org/2000/svg">
<g clip-path="url(#clip0_3022_2192)">
<path d="M10.6763 14.25C11.325 14.25 11.6678 15.018 11.235 15.501C10.9539 15.8156 10.6095 16.0672 10.2243 16.2394C9.83914 16.4115 9.42193 16.5004 9.00004 16.5C8.57814 16.5004 8.16093 16.4115 7.77576 16.2394C7.39059 16.0672 7.04616 15.8156 6.76504 15.501C6.35104 15.039 6.64654 14.3167 7.24054 14.2552L7.32304 14.2507L10.6763 14.25Z" fill="#181B1A"/>
<path d="M9.00002 1.5C10.0185 1.5 10.8795 2.17725 11.1563 3.10575L11.1908 3.234L11.1968 3.26625C12.0236 3.73268 12.7281 4.38833 13.2527 5.1795C13.7773 5.97067 14.107 6.87486 14.2148 7.818L14.2358 8.03325L14.25 8.25V10.4482L14.2658 10.5503C14.3685 11.1029 14.6743 11.597 15.123 11.9355L15.2483 12.0233L15.3698 12.0975C16.0148 12.4627 15.7898 13.422 15.087 13.4955L15 13.5H3.00002C2.22902 13.5 1.95977 12.477 2.63027 12.0975C2.91604 11.9358 3.16296 11.7135 3.35368 11.4462C3.5444 11.1789 3.6743 10.8731 3.73427 10.5503L3.75002 10.443L3.75077 8.2155C3.7965 7.23591 4.08164 6.28246 4.58124 5.4386C5.08083 4.59474 5.77965 3.8862 6.61652 3.375L6.80252 3.2655L6.81002 3.23325C6.91611 2.78477 7.15723 2.37963 7.50084 2.0725C7.84444 1.76538 8.27399 1.57105 8.73152 1.51575L8.86802 1.503L9.00002 1.5Z" fill="#181B1A"/>
</g>
<defs>
<clipPath id="clip0_3022_2192">
<rect width="18" height="18" fill="white"/>
</clipPath>
</defs>
</svg>
