<svg width="16" height="14" viewBox="0 0 16 14" fill="none" xmlns="http://www.w3.org/2000/svg">
<path d="M2.86575 1.44849C5.78925 -0.625263 9.9675 -0.455763 12.6705 1.85049C15.4207 4.19574 15.7965 8.02899 13.5345 10.7732C11.403 13.3585 7.56075 14.2105 4.36125 12.877L4.18725 12.8012L0.906 13.4995L0.84975 13.5092L0.76725 13.516L0.6825 13.513L0.6495 13.5092L0.567 13.4942L0.48825 13.4687L0.41325 13.4357L0.35625 13.4042L0.27525 13.3465L0.2145 13.291L0.15975 13.2287L0.12 13.1725L0.07125 13.0862L0.03975 13.0067L0.0165001 12.922L0.00675005 12.8657L0 12.7832L0.00299996 12.6985L0.00675005 12.6655L0.02175 12.583L0.0382501 12.529L0.90075 9.94074L0.88425 9.91374C-0.77325 7.10349 -0.0224998 3.61974 2.6925 1.57524L2.865 1.44924L2.86575 1.44849Z" fill="#181B1A"/>
</svg>
