<svg width="24" height="24" viewBox="0 0 24 24" fill="none" xmlns="http://www.w3.org/2000/svg">
<g clip-path="url(#clip0_3022_1509)">
<path d="M7.00001 6L6.88801 6.006C6.71018 6.02594 6.54096 6.09323 6.398 6.20086C6.25505 6.30848 6.14358 6.45249 6.07525 6.61787C6.00691 6.78325 5.9842 6.96394 6.00949 7.14108C6.03477 7.31823 6.10713 7.48535 6.21901 7.625L9.72001 12L6.22001 16.375C6.10229 16.522 6.02849 16.6993 6.0071 16.8864C5.98571 17.0736 6.01761 17.2629 6.09911 17.4327C6.18061 17.6025 6.30841 17.7459 6.4678 17.8462C6.62718 17.9466 6.81166 17.9999 7.00001 18H13C13.1498 17.9999 13.2977 17.9662 13.4327 17.9013C13.5677 17.8363 13.6864 17.7419 13.78 17.625L17.78 12.625C17.922 12.4476 17.9994 12.2272 17.9994 12C17.9994 11.7728 17.922 11.5524 17.78 11.375L13.78 6.375C13.6864 6.25806 13.5677 6.16365 13.4327 6.09875C13.2977 6.03384 13.1498 6.00009 13 6H7.00001Z" fill="#033028"/>
</g>
<defs>
<clipPath id="clip0_3022_1509">
<rect width="24" height="24" fill="white"/>
</clipPath>
</defs>
</svg>
